<svg width="18px" height="19px" viewBox="3 3 18 19" version="1.1" xmlns="http://www.w3.org/2000/svg" xmlns:xlink="http://www.w3.org/1999/xlink">
    <g id="Group" stroke="none" stroke-width="1" fill="none" fill-rule="evenodd" transform="translate(3.000000, 3.000000)">
        <path d="M2,17 C2,18.103 2.897,19 4,19 L14,19 C15.103,19 16,18.103 16,17 L16,5 L2,5 L2,17 Z M4,7 L14,7 L14.001,17 L4,17 L4,7 Z" id="Shape" fill="#333333"></path>
        <polygon id="Shape" fill="#333333" points="12 2 12 0 6 0 6 2 0 2 0 4 18 4 18 2"></polygon>
        <rect id="Rectangle-path" fill="#333333" x="6" y="9" width="2" height="6"></rect>
        <rect id="Rectangle-path" fill="#333333" x="10" y="9" width="2" height="6"></rect>
    </g>
</svg>
