<svg width="16px" height="21px" viewBox="33 32 16 21" version="1.1" xmlns="http://www.w3.org/2000/svg" xmlns:xlink="http://www.w3.org/1999/xlink">
    <g id="Group" stroke="none" stroke-width="1" fill="none" fill-rule="evenodd" transform="translate(33.000000, 32.000000)">
        <path d="M11.707,0.543 C11.421,0.257 10.992,0.17 10.617,0.326 C10.244,0.48 10,0.846 10,1.25 L10,20.25 L12,20.25 L12,14.25 L14,14.25 C14.553,14.25 15,13.803 15,13.25 C15,3.944 11.842,0.678 11.707,0.543 L11.707,0.543 Z M12,12.25 L12,5.493 C12.487,7.093 12.908,9.301 12.986,12.25 L12,12.25 L12,12.25 Z" id="Shape" fill="#2ECC71"></path>
        <path d="M6,6.25 C6,6.987 5.595,7.625 5,7.973 L5,0.25 L3,0.25 L3,7.973 C2.405,7.625 2,6.987 2,6.25 L2,0.25 L0,0.25 L0,6.25 C0,8.108 1.279,9.661 3,10.108 L3,20.25 L5,20.25 L5,10.108 C6.721,9.66 8,8.108 8,6.25 L8,0.25 L6,0.25 L6,6.25 L6,6.25 Z" id="Shape" fill="#2ECC71"></path>
    </g>
</svg>
